HIERARCHY
ROOT Hips
{
  OFFSET 0.382225 96.6805 0.598322
  CHANNELS 6 Xposition Yposition Zposition Zrotation Xrotation Yrotation
  JOINT Spine
  {
    OFFSET 10.8089 -0.851416 0
    CHANNELS 3 Zrotation Xrotation Yrotation
    JOINT Spine1
    {
      OFFSET 18.8753 3.80116 0
      CHANNELS 3 Zrotation Xrotation Yrotation
      JOINT Spine2
      {
        OFFSET 13.4073 0.420477 0
        CHANNELS 3 Zrotation Xrotation Yrotation
        JOINT LeftShoulder
        {
          OFFSET 11.8837 -2.73209 -3.78198
          CHANNELS 3 Zrotation Xrotation Yrotation
          JOINT LeftArm
          {
            OFFSET 15.7849 0 -2.35849e-005
            CHANNELS 3 Zrotation Xrotation Yrotation
            JOINT LeftForeArm
            {
              OFFSET 30.3399 0 0
              CHANNELS 3 Zrotation Xrotation Yrotation
              JOINT LeftHand
              {
                OFFSET 26.9751 0 2.45913e-005
                CHANNELS 3 Zrotation Xrotation Yrotation
                End Site
                {
                  OFFSET 8 0 0
                }
              }
            }
          }
        }
        JOINT RightShoulder
        {
          OFFSET 11.8838 -2.7321 3.782
          CHANNELS 3 Zrotation Xrotation Yrotation
          JOINT RightArm
          {
            OFFSET -15.7848 0 -1.07056e-005
            CHANNELS 3 Zrotation Xrotation Yrotation
            JOINT RightForeArm
            {
              OFFSET -30.34 1.02096e-005 -2.53607e-005
              CHANNELS 3 Zrotation Xrotation Yrotation
              JOINT RightHand
              {
                OFFSET -26.9752 2.07668e-005 0
                CHANNELS 3 Zrotation Xrotation Yrotation
                End Site
                {
                  OFFSET -8 0 0
                }
              }
            }
          }
        }
        JOINT Neck
        {
          OFFSET 16.5588 -0.355318 0
          CHANNELS 3 Zrotation Xrotation Yrotation
          JOINT Head
          {
            OFFSET 9.28361 0.364157 0
            CHANNELS 3 Zrotation Xrotation Yrotation
            End Site
            {
              OFFSET 0 0 0
            }
          }
        }
      }
    }
  }
  JOINT LeftUpLeg
  {
    OFFSET -1.44883 -0.531424 -9.00581
    CHANNELS 3 Zrotation Xrotation Yrotation
    JOINT LeftLeg
    {
      OFFSET -42.572 0.0788889 -0.011964
      CHANNELS 3 Zrotation Xrotation Yrotation
      JOINT LeftFoot
      {
        OFFSET -40.1967 0 0
        CHANNELS 3 Zrotation Xrotation Yrotation
				JOINT LeftToe
        {
          OFFSET -10.4538 -16.5779 0.0801563
          CHANNELS 3 Zrotation Xrotation Yrotation
          End Site
          {
            OFFSET -1.0 -1.0 0.0
          }
        }
      }
    }
  }
  JOINT RightUpLeg
  {
    OFFSET -1.44865 -0.531427 9.0058
    CHANNELS 3 Zrotation Xrotation Yrotation
    JOINT RightLeg
    {
      OFFSET 42.5723 -3.24776e-005 0
      CHANNELS 3 Zrotation Xrotation Yrotation
      JOINT RightFoot
      {
        OFFSET 40.1968 0 -1.14003e-005
        CHANNELS 3 Zrotation Xrotation Yrotation
				JOINT RightToe
        {
          OFFSET 10.4538 16.5778 -0.0801573
          CHANNELS 3 Zrotation Xrotation Yrotation
          End Site
          {
            OFFSET -1.0 -1.0 0.0
          }
        }
      }
    }
  }
}
MOTION
Frames:	17
Frame Time:	0.0333333
79.3848 97.2893 142.491 -99.4214 72.119 -152.279 -58.6909 8.335 -4.6378 10.8206 0.149319 0.316824 2.7794 1.93418e-006 1.65929e-005 -2.59129 20.0854 82.8128 -37.6825 54.3326 76.6662 -60.3311 0.46867 -16.7468 -89.0865 -38.4712 -83.8953 -175.687 7.46496 69.4615 -10.3157 -21.7305 16.3536 -74.562 -9.04499 -5.78859 -112.236 -74.2268 -97.9043 -23.508 4.63459e-006 -5.90926e-006 19.8997 15.227 6.68141 45.5046 31.9541 -42.0316 -36.1103 -4.73001 -1.06377 0.312493 -4.31401 -0.371869 -90 0 0 -69.4913 10.4774 -16.156 -105.041 4.72143 -5.80403 11.25 2.67542 8.15794 -90 0 0
79.9925 96.7125 144.863 -101.305 78.2682 -149.817 -53.7761 10.7843 -5.53317 11.7052 0.110375 0.229568 2.7794 1.93418e-006 1.65929e-005 -4.69825 25.8795 88.8272 -32.7996 54.937 84.5473 -70.5931 5.56622 -18.8597 -82.8921 -43.853 -77.7492 -176.451 8.42064 72.6554 -12.8349 -21.8183 22.7605 -75.9921 -9.01458 -5.91577 -117.129 -74.4527 -101.652 -23.508 4.63459e-006 -5.90926e-006 16.9237 19.9518 11.1935 36.3794 26.7215 -37.6193 -35.7428 -4.79199 -1.02116 7.77078 -4.22951 3.78972 -90 0 0 -79.2495 6.11852 -17.7377 -103.036 4.54153 -5.87806 5.52667 3.0291 6.73736 -90 0 0
81.2268 95.7011 146.362 -97.4414 81.9449 -154.582 -47.6361 11.0507 -6.38152 12.6299 0.0682297 0.139019 2.7794 1.93418e-006 1.65929e-005 -5.58631 30.1111 89.7366 -30.6683 53.437 93.3389 -76.8208 8.84203 -19.6992 -75.2263 -46.7255 -69.5321 -177.664 9.20263 77.362 -12.1931 -14.327 30.1051 -78.6146 -8.95059 -6.14694 -111.688 -75.1336 -96.132 -23.508 4.63459e-006 -5.90926e-006 13.3885 23.6474 14.5741 34.0033 23.8525 -34.3936 -34.343 -4.92158 -0.869097 11.3385 3.02402 6.05695 -90 0 0 -92.8967 0.882393 -19.9388 -98.8992 4.03819 -5.99783 -1.37841 3.5716 6.24276 -90 0 0
83.7998 94.5154 147.208 -94.6901 81.4018 -161.693 -43.2529 9.66535 -4.25852 12.7246 0.0638262 0.129786 2.7794 1.93418e-006 1.65929e-005 -4.13997 31.9671 85.7859 -34.4506 48.5336 96.9413 -81.8767 11.5497 -20.1165 -72.5584 -50.6011 -67.6175 -178.683 11.6946 80.5705 -8.7617 -2.25234 40.19 -81.0374 -8.88303 -6.35627 -120.451 -74.9275 -106.171 -23.508 4.63459e-006 -5.90926e-006 13.8831 23.5046 14.9266 34.8868 22.794 -30.7444 -37.3183 -4.73896 -1.18558 9.39038 4.87633 5.31186 -90 0 0 -111.059 -4.34628 -24.4903 -93.0305 3.21362 -6.0987 -7.77214 3.05164 6.32333 -90 0 0
87.3466 92.7221 147.472 -88.4059 78.7618 -172.244 -37.2301 7.87363 -2.25318 12.8295 0.0589346 0.119565 2.7794 1.93418e-006 1.65929e-005 -2.76088 29.9306 82.772 -38.2432 44.6346 92.1166 -88.3012 14.9958 -20.295 -75.3875 -51.972 -70.7486 -179.474 14.5602 82.1368 -10.1093 10.2063 51.5585 -80.064 -8.9108 -6.27329 -136.189 -75.2504 -125.328 -23.508 4.63459e-006 -5.90926e-006 11.9191 19.8989 14.5762 37.8528 24.6352 -29.9685 -39.3282 -4.71751 -1.39179 9.75087 0.681335 8.85614 -90 0 0 -129.245 -2.26667 -30.6131 -83.0696 1.72387 -6.05052 -14.9409 1.63936 5.07838 -90 0 0
91.4708 90.2999 147.828 -85.0889 76.4116 -178.818 -31.4406 6.26239 -0.415568 13.2509 0.0390972 0.07859 2.7794 1.93418e-006 1.65929e-005 -1.5361 26.483 79.5679 -41.6792 38.378 82.5158 -93.7485 17.8755 -20.135 -87.2723 -54.2558 -84.1829 179.557 16.3897 84.2028 -15.9338 14.8817 59.5882 -80.5717 -8.89619 -6.31733 -145.097 -79.1854 -135.342 -23.508 4.63459e-006 -5.90926e-006 9.22779 16.5662 12.611 44.2305 26.5423 -32.3957 -43.9261 -4.53351 -1.84808 9.7441 -3.58633 12.7843 -90 0 0 -143.485 6.14463 -34.6233 -68.1742 -0.560621 -5.46348 -17.0229 0.471822 10.2927 -90 0 0
95.4038 86.9015 149.481 -82.2462 77.1706 175.459 -27.7782 6.51546 1.02832 14.0627 4.55566e-005 6.39211e-005 2.7794 1.93418e-006 1.65929e-005 -1.35519 22.6935 78.5183 -42.5298 28.1252 67.9943 -97.6165 19.8734 -19.8493 -92.3683 -52.6017 -88.2638 179.537 14.9511 84.9735 -22.2517 10.7957 61.5051 -87.8511 -8.6439 -6.93241 -166.591 -80.068 -155.707 -23.508 4.63459e-006 -5.90926e-006 8.46004 16.8578 11.962 51.2155 27.1616 -35.3339 -49.8669 -4.11671 -2.38619 9.52176 -5.0558 13.4758 -90 0 0 -151.615 12.2166 -35.6819 -54.5733 -2.44448 -4.39933 -16.6851 -1.43788 15.1845 -90 0 0
98.5549 82.8223 152.869 -76.2245 81.4571 165.909 -27.7364 8.36987 2.54268 15.4226 -0.0678691 -0.130201 2.7794 1.93418e-006 1.65929e-005 -2.34138 17.8837 81.6739 -39.8877 14.1844 51.0035 -98.1152 20.1273 -19.8022 -96.8948 -49.0303 -90.144 -179.483 9.25495 84.769 -25.696 -1.23809 56.3101 -96.9664 -8.22236 -7.64925 -169.204 -81.3402 -156.139 -23.508 4.63459e-006 -5.90926e-006 8.76098 19.3781 14.1846 57.2407 27.1647 -37.3775 -56.2325 -3.53893 -2.89283 8.82843 -4.22982 12.016 -90 0 0 -155.428 9.50467 -36.0015 -53.8931 -2.62879 -4.32934 9.30687 5.04453 26.301 -90 0 0
100.937 79.0364 157.602 -49.5678 84.899 136.031 -30.7765 8.29934 2.70908 17.8576 -0.197146 -0.359333 2.7794 1.93418e-006 1.65929e-005 -2.73163 11.6944 83.9634 -35.2563 -0.079588 42.4778 -97.2538 19.688 -19.8821 -95.7157 -45.6933 -87.0795 -178.134 2.11996 81.7505 -29.1856 -17.2071 51.4776 -102.003 -7.94203 -8.01375 -154.555 -81.9614 -140.105 -23.508 4.63459e-006 -5.90926e-006 10.7641 24.7631 17.9559 63.9494 27.1627 -38.9115 -60.6451 -3.04119 -3.19842 5.76539 -2.92611 8.92298 -90 0 0 -151.382 6.39245 -37.477 -53.5699 -2.62639 -4.2978 23.8086 5.82111 28.2559 -90 0 0
102.326 76.3844 162.227 -0.559087 83.9455 84.2903 -33.2114 4.4748 2.28657 18.5193 -0.233946 -0.420641 2.7794 1.93418e-006 1.65929e-005 -2.65253 8.38171 82.4626 -33.8362 -7.19406 42.2209 -98.098 20.1186 -19.8038 -98.5536 -43.1423 -91.9295 -177.539 -1.91593 76.9175 -33.0467 -28.8895 53.6326 -105.787 -7.71115 -8.27043 -141.656 -81.7856 -126.063 -23.508 4.63459e-006 -5.90926e-006 18.9662 34.4821 16.2816 70.558 27.5722 -40.9545 -62.4137 -2.92996 -3.30928 2.33242 -2.7953 10.2615 -90 0 0 -143.456 -2.27211 -38.2357 -60.6937 -1.74663 -4.94421 26.6127 2.82786 33.2657 -90 0 0
103.553 74.994 165.161 15.1163 83.2665 68.0637 -37.0322 -1.36615 -0.267659 17.7632 -0.191949 -0.350554 2.7794 1.93418e-006 1.65929e-005 -2.67879 7.43644 82.5059 -39.8638 -0.204978 42.9604 -97.5196 19.8235 -19.8582 -100.534 -45.4924 -95.5198 -177.653 0.476005 78.2688 -39.9591 -27.9445 55.2033 -109.034 -7.47591 -8.46987 -131.533 -82.5453 -115.214 -23.508 4.63459e-006 -5.90926e-006 31.3046 43.4037 7.86424 72.3122 25.9788 -42.8816 -63.3241 -2.98492 -3.36121 2.13034 -10.5362 15.2173 -90 0 0 -136.927 -5.79536 -36.3021 -67.2153 -0.821334 -5.4225 25.5159 2.44658 29.5844 -90 0 0
104.634 74.0812 166.891 20.8132 83.5976 62.451 -40.1853 -7.67512 -2.59106 15.2963 -0.0614283 -0.118167 2.7794 1.93418e-006 1.65929e-005 -2.63074 8.95261 82.3459 -52.2825 9.28927 49.4283 -89.2098 15.4803 -20.2881 -95.4293 -51.4932 -90.6944 -178.586 4.78988 83.1752 -41.8322 -16.9834 57.467 -108.035 -7.56661 -8.4158 -99.3571 -83.6958 -82.6398 -23.508 4.63459e-006 -5.90926e-006 46.3104 47.9088 -5.07427 72.2448 24.112 -44.3771 -64.7668 -2.87054 -3.4422 1.61889 -10.2661 16.4142 -90 0 0 -135.502 -7.6045 -34.5878 -69.982 -0.430634 -5.59127 26.026 3.66988 29.3741 -90 0 0
105.223 73.2008 168.033 25.9035 83.7581 57.3158 -43.1743 -13.3399 -3.61447 13.2932 0.03709 0.0744839 2.7794 1.93418e-006 1.65929e-005 -2.56236 10.0753 81.8343 -61.927 13.8947 60.8832 -81.0851 11.1243 -20.0671 -91.7852 -49.1697 -87.4073 179.812 9.77553 87.374 -40.1203 -4.53856 58.7399 -100.546 -8.02633 -7.91084 -112.71 -80.3549 -99.5955 -23.508 4.63459e-006 -5.90926e-006 59.6704 48.7142 -15.6238 70.9521 21.5311 -44.3667 -68.4361 -2.32638 -3.63283 2.00066 -3.65501 12.2028 -90 0 0 -134.075 -9.20682 -33.2617 -72.5624 -0.049325 -5.73041 26.2227 4.72242 28.1377 -90 0 0
105.65 72.1273 168.649 32.0221 83.89 51.8723 -46.0695 -18.0526 -4.00388 11.974 0.0982765 0.203189 2.7794 1.93418e-006 1.65929e-005 -2.6005 12.1063 82.7399 -63.9067 17.2997 73.7852 -83.1063 12.2105 -20.1813 -93.9855 -49.4062 -90.2596 178.431 14.7132 88.538 -37.7968 5.43358 59.6604 -96.0435 -8.27 -7.57984 -120.835 -76.9169 -109.526 -23.508 4.63459e-006 -5.90926e-006 68.0814 45.765 -21.5292 68.8599 17.6237 -44.0872 -74.2329 -1.722 -3.87151 4.8423 -2.25262 13.8629 -90 0 0 -133.025 -10.0731 -31.9511 -74.8534 0.269815 -5.83728 26.3846 5.63776 28.2347 -90 0 0
105.919 70.7479 169.006 34.3091 83.6941 49.7535 -46.8316 -20.888 -2.34517 11.4087 0.123572 0.258747 2.7794 1.93418e-006 1.65929e-005 -2.72078 15.9463 83.6134 -64.417 20.7067 85.5276 -88.6164 15.164 -20.2935 -97.3439 -51.4897 -93.287 178.402 17.4788 86.838 -34.5496 16.9402 60.9443 -99.9072 -8.06269 -7.8651 -140.487 -73.2458 -130.828 -23.508 4.63459e-006 -5.90926e-006 70.1811 42.1399 -23.474 67.464 16.1067 -43.77 -75.8233 -1.70364 -3.92381 8.08136 -1.39299 18.991 -90 0 0 -131.284 -10.9895 -31.7846 -77.5355 0.651343 -5.94393 26.3396 6.79708 28.6398 -90 0 0
106.596 69.2809 169.006 18.883 85.3168 65.3676 -46.4805 -21.0745 0.013705 10.8971 0.145995 0.309241 2.7794 1.93418e-006 1.65929e-005 -2.71505 17.902 83.4559 -63.4125 24.3062 94.1548 -93.954 17.9828 -20.1234 -99.1368 -51.325 -95.5867 179.191 21.1463 83.1497 -34.5163 25.5261 64.2927 -104.385 -7.799 -8.17718 -139.724 -74.754 -130.329 -23.508 4.63459e-006 -5.90926e-006 69.8822 38.5517 -23.2972 65.2472 13.9074 -41.6583 -75.4791 -1.81853 -3.91532 12.0256 -1.48061 21.9194 -90 0 0 -131.477 -10.6466 -33.0145 -80.5557 1.08851 -6.04448 26.8287 9.21338 29.6009 -90 0 0
107.964 68.213 168.518 -47.8461 85.1252 132.114 -45.2676 -20.4917 2.64074 10.5991 0.158853 0.338748 2.7794 1.93418e-006 1.65929e-005 -2.51326 19.3564 82.5002 -59.4299 27.1837 95.371 -99.1219 20.637 -19.7 -105.146 -50.3055 -102.648 179.961 21.8134 81.1674 -36.569 29.9147 69.6416 -107.11 -7.62672 -8.3567 -133.795 -73.275 -125.365 -23.508 4.63459e-006 -5.90926e-006 69.4506 33.5853 -22.505 64.805 10.6709 -38.3419 -75.7877 -1.81818 -3.92592 10.9433 -2.59472 22.4769 -90 0 0 -133.142 -8.23332 -35.3991 -84.0353 1.62371 -6.13267 28.3825 12.4879 29.3185 -90 0 0
